<svg xmlns="http://www.w3.org/2000/svg" width="960" height="720" viewBox="0 0 960 720" fill="none">
  <rect width="960" height="720" rx="36" fill="#F8FBFF"/>
  <circle cx="800" cy="120" r="110" fill="#DBEAFE"/>
  <circle cx="160" cy="610" r="130" fill="#DCFCE7"/>
  <rect x="120" y="105" width="720" height="510" rx="34" fill="white" stroke="#DBE4F0" stroke-width="3"/>
  <rect x="170" y="160" width="250" height="34" rx="17" fill="#2563EB"/>
  <rect x="170" y="220" width="520" height="24" rx="12" fill="#E2E8F0"/>
  <rect x="170" y="265" width="430" height="24" rx="12" fill="#E2E8F0"/>
  <rect x="170" y="335" width="185" height="145" rx="22" fill="#EFF6FF" stroke="#BFDBFE" stroke-width="2"/>
  <rect x="388" y="335" width="185" height="145" rx="22" fill="#F0FDF4" stroke="#BBF7D0" stroke-width="2"/>
  <rect x="606" y="335" width="185" height="145" rx="22" fill="#F8FAFC" stroke="#CBD5E1" stroke-width="2"/>
  <circle cx="228" cy="390" r="28" fill="#2563EB"/>
  <circle cx="446" cy="390" r="28" fill="#16A34A"/>
  <circle cx="664" cy="390" r="28" fill="#0F172A"/>
  <rect x="205" y="430" width="100" height="16" rx="8" fill="#94A3B8"/>
  <rect x="423" y="430" width="100" height="16" rx="8" fill="#94A3B8"/>
  <rect x="641" y="430" width="100" height="16" rx="8" fill="#94A3B8"/>
  <rect x="170" y="530" width="220" height="48" rx="16" fill="#2563EB"/>
  <rect x="410" y="530" width="220" height="48" rx="16" fill="#16A34A"/>
</svg>